# AST/ASF file generated using VICON BodyLanguage
# -----------------------------------------------
:version 1.10
:name VICON
:units
  mass 1.0
  length 0.45
  angle deg
:documentation
   .ast/.asf automatically generated from VICON data using
   VICON BodyBuilder and BodyLanguage model FoxedUp or BRILLIANT.MOD
:root
   order TX TY TZ RX RY RZ
   axis XYZ
   position 0 0 0  
   orientation 0 0 0 
:bonedata
  begin
     id 1 
     name lhipjoint
     direction 0.653368 -0.678499 0.335782 
     length 2.51848 
     axis 0 0 0  XYZ
  end
  begin
     id 2 
     name lfemur
     direction 0.34202 -0.939693 0  
     length 6.57749  
     axis 0 0 20  XYZ
    dof rx ry rz
    limits (-160.0 20.0)
           (-70.0 70.0)
           (-60.0 70.0)
  end
  begin
     id 3 
     name ltibia
     direction 0.34202 -0.939693 0   
     length 7.94618   
     axis 0 0 20   XYZ
    dof rx
    limits (-10.0 170.0)
  end
  begin
     id 4 
     name lfoot
     direction 0.0811271 -0.222895 0.971461   
     length 2.31339   
     axis -90 7.62852e-016 20   XYZ
    dof rx rz
    limits (-45.0 90.0)
           (-70.0 20.0)
  end
  begin
     id 5 
     name ltoes
     direction 1.53568e-011 -4.21885e-011 1   
     length 1.15935   
     axis -90 7.62852e-016 20   XYZ
    dof rx
    limits (-90.0 20.0)
  end
  begin
     id 6 
     name rhipjoint
     direction -0.640058 -0.688614 0.340788   
     length 2.48149  
     axis 0 0 0  XYZ 
  end
  begin
     id 7 
     name rfemur
     direction -0.34202 -0.939693 0   
     length 6.57875   
     axis 0 0 -20   XYZ
    dof rx ry rz
    limits (-160.0 20.0)
           (-70.0 70.0)
           (-70.0 60.0)
  end
  begin
     id 8 
     name rtibia
     direction -0.34202 -0.939693 0   
     length 7.977   
     axis 0 0 -20   XYZ
    dof rx
    limits (-10.0 170.0)
 end
 begin
     id 9 
     name rfoot
     direction -0.0979793 -0.269196 0.958089   
     length 2.19857  
     axis -90 -7.62852e-016 -20   XYZ
    dof rx rz
    limits (-45.0 90.0)
           (-20.0 70.0)
  end
  begin
     id 10 
     name rtoes
     direction -1.53556e-011 -4.21868e-011 1   
     length 1.09838   
     axis -90 -7.62852e-016 -20   XYZ
    dof rx
    limits (-90.0 20.0)
  end
  begin
     id 11 
     name lowerback
     direction 0.0149039 0.998517 -0.0523597   
     length 2.10809   
     axis 0 0 0   XYZ
    dof rx ry rz
    limits (-20.0 45.0)
           (-30.0 30.0)
           (-30.0 30.0)
  end
  begin
     id 12 
     name upperback
     direction -0.00882659 0.999418 -0.0329624   
     length 2.1102   
     axis 0 0 0   XYZ
    dof rx ry rz
    limits (-20.0 45.0)
           (-30.0 30.0)
           (-30.0 30.0)
  end
  begin
     id 13 
     name thorax
     direction -0.0165585 0.999826 -0.0085833   
     length 2.11039   
     axis 0 0 0   XYZ
    dof rx ry rz
    limits (-20.0 45.0)
           (-30.0 30.0)
           (-30.0 30.0)
  end
  begin
     id 14 
     name lowerneck
     direction -0.0130877 0.999911 0.00260353   
     length 1.73253   
     axis 0 0 0   XYZ
    dof rx ry rz
    limits (-20.0 45.0)
           (-30.0 30.0)
           (-30.0 30.0)
  end
  begin
     id 15 
     name upperneck
     direction -0.0348454 0.928205 -0.370435   
     length 1.66692   
     axis 0 0 0   XYZ
    dof rx ry rz
    limits (-20.0 45.0)
           (-30.0 30.0)
           (-30.0 30.0)
  end
  begin
     id 16
     name head
     direction -0.00807754 0.992494 -0.122026  
     length 1.72765  
     axis 0 0 0   XYZ
    dof rx ry rz
    limits (-20.0 45.0)
           (-30.0 30.0)
           (-30.0 30.0)
  end
  begin
     id 17 
     name lclavicle
     direction 0.987582 0.144023 0.0627671  
     length 3.49235  
     axis 0 0 0   XYZ
    dof ry rz
    limits (-20.0 10.0)
           (0.0 20.0)
  end
  begin
     id 18 
     name lhumerus
     direction 1 -4.48958e-011 -1.45183e-018   
     length 5.41917   
     axis 180 -30 -90   XYZ
    dof rx ry rz
    limits (-60.0 90.0)
           (-90.0 90.0)
           (-90.0 90.0)
  end
  begin
     id 19
     name lradius
     direction 1 -4.48999e-011 5.75106e-027   
     length 2.44373   
     axis 180 -30 -90   XYZ
    dof rx
    limits (-10.0 170.0)
  end
  begin
     id 20
     name lwrist
     direction 1 -4.48987e-011 1.53461e-026   
     length 1.22186   
     axis -1.09697e-014 90 90   XYZ
    dof ry
    limits (-180.0 0.0)
 end
  begin
     id 21 
     name lhand
     direction 1 -4.48881e-011 3.06923e-026   
     length 0.727502   
     axis -1.95843e-014 90 90   XYZ
    dof rx rz
    limits (-90.0 90.0)
           (-45.0 45.0)
  end
  begin
     id 22 
     name lfingers
     direction 1 -4.48907e-011 6.13845e-026   
     length 0.586531   
     axis -3.91686e-014 90 90   XYZ
    dof rx
    limits (0.0 90.0)
  end
  begin
     id 23
     name lthumb
     direction 0.707107 -6.3487e-011 0.707107   
     length 0.842145   
     axis -90 45 2.85299e-015   XYZ
    dof rx rz
    limits (-45.0 45.0)
           (-45.0 45.0)
  end
  begin
     id 24 
     name rclavicle
     direction -0.980998 0.169556 0.0943023   
     length 3.29272  
     axis 0 0 0   XYZ 
    dof ry rz
    limits (-10.0 20.0)
           (-20.0 0.0)
  end
  begin
     id 25 
     name rhumerus
     direction -1 -1.83355e-005 2.45537e-005  
     length 5.58976   
     axis 180 30 90   XYZ
    dof rx ry rz
    limits (-90.0 60.0)
           (-90.0 90.0)
           (-90.0 90.0)
  end
  begin
     id 26 
     name rradius
     direction -1 -4.48967e-011 5.97228e-027   
     length 2.4806   
     axis 180 30 90   XYZ
    dof rx
    limits (-10.0 170.0)
  end
  begin
     id 27 
     name rwrist
     direction -1 -4.48963e-011 1.53461e-026   
     length 1.2403   
     axis -1.09697e-014 -90 -90   XYZ
    dof ry
    limits (-180.0 0.0)
  end
  begin
     id 28
     name rhand
     direction -1 -4.48881e-011 3.06923e-026   
     length 0.816009   
     axis -1.95843e-014 -90 -90   XYZ
    dof rx rz
    limits (-90.0 90.0)
           (-45.0 45.0)
  end
  begin
     id 29
     name rfingers
     direction -1 -4.49018e-011 6.13845e-026   
     length 0.657887   
     axis -3.91686e-014 -90 -90   XYZ
    dof rx
    limits (0.0 90.0)
  end
  begin
     id 30
     name rthumb
     direction -0.707107 -6.34872e-011 0.707107   
     length 0.944599   
     axis -90 -45 -2.85299e-015   XYZ
    dof rx rz
    limits (-45.0 45.0)
           (-45.0 45.0)
  end
:hierarchy
  begin
    root lhipjoint rhipjoint lowerback
    lhipjoint lfemur
    lfemur ltibia
    ltibia lfoot
    lfoot ltoes
    rhipjoint rfemur
    rfemur rtibia
    rtibia rfoot
    rfoot rtoes
    lowerback upperback
    upperback thorax
    thorax lowerneck lclavicle rclavicle
    lowerneck upperneck
    upperneck head
    lclavicle lhumerus
    lhumerus lradius
    lradius lwrist
    lwrist lhand lthumb
    lhand lfingers
    rclavicle rhumerus
    rhumerus rradius
    rradius rwrist
    rwrist rhand rthumb
    rhand rfingers
  end

#!OML:ASF F:\VICON\USERDATA\INSTALL\rory3\rory3.ASF
:FULLY-SPECIFIED
:DEGREES
196
root 0.836384 16.4894 36.7852 -155.548 -4.29568 -182.391
lowerback -17.261 -0.501453 -5.63849
upperback -7.37456 -0.948157 -0.432878
thorax 1.80387 -0.888358 2.54262
lowerneck -11.2843 1.7893 -0.905191
upperneck 38.9279 -2.47118 0.875446
head 15.643 -2.71696 -0.325025
rclavicle 2.26739e-015 1.13307e-014
rhumerus -43.2991 17.9723 -91.4574
rradius 23.0859
rwrist -8.82875
rhand 16.8701 1.21711
rfingers 7.12502
rthumb 41.609 -23.5026
lclavicle 2.26739e-015 1.13307e-014
lhumerus -45.653 -5.55143 81.1148
lradius 30.8009
lwrist -0.338279
lhand 27.3113 22.2123
lfingers 7.12502
lthumb 51.2743 42.7393
rfemur -35.6229 -22.7303 32.0303
rtibia 65.8033
rfoot 23.7413 -29.8836
rtoes 31.063
lfemur -45.7702 -1.08765 -33.0789
ltibia 44.8569
lfoot -35.5233 18.3276
ltoes 8.14223
197
root 0.833293 16.4922 36.7798 -155.485 -4.24469 -182.374
lowerback -17.2019 -0.524585 -5.60125
upperback -7.41908 -0.997607 -0.415299
thorax 1.72982 -0.913755 2.53251
lowerneck -11.4436 1.8081 -0.911764
upperneck 39.0079 -2.43728 0.847174
head 15.7214 -2.70814 -0.335222
rclavicle -4.4944e-015 1.19271e-015
rhumerus -43.461 18.3901 -91.6959
rradius 23.3263
rwrist -8.95596
rhand 16.0238 1.3134
rfingers 7.12502
rthumb 40.8145 -23.6617
lclavicle -4.4944e-015 1.19271e-015
lhumerus -45.8429 -5.63163 81.0455
lradius 31.0571
lwrist -0.0946429
lhand 27.055 22.0261
lfingers 7.12502
lthumb 51.0408 42.6847
rfemur -35.6336 -22.7556 32.0104
rtibia 65.7099
rfoot 26.1311 -29.3112
rtoes 29.6534
lfemur -45.8283 -1.08543 -33.0758
ltibia 44.8734
lfoot -35.4715 18.3458
ltoes 8.46559
198
root 0.830187 16.4953 36.7744 -155.363 -4.13546 -182.336
lowerback -17.1843 -0.510092 -5.53265
upperback -7.49389 -1.00898 -0.419469
thorax 1.64128 -0.92426 2.48857
lowerneck -11.6048 1.83813 -0.942327
upperneck 39.09 -2.38946 0.850103
head 15.8022 -2.69268 -0.32542
rclavicle 6.83633e-015 1.37161e-014
rhumerus -43.6002 18.6418 -91.8502
rradius 23.5542
rwrist -8.98603
rhand 15.6691 0.965512
rfingers 7.12502
rthumb 40.4811 -24.1136
lclavicle 6.83633e-015 1.37161e-014
lhumerus -46.0221 -5.80964 80.9739
lradius 31.3266
lwrist 0.0773225
lhand 26.9552 21.7482
lfingers 7.12502
lthumb 50.9499 42.4575
rfemur -35.7193 -22.7795 32.024
rtibia 65.6255
rfoot 24.8974 -28.5357
rtoes 29.5506
lfemur -45.9493 -1.28726 -32.9898
ltibia 44.8873
lfoot -35.5558 18.6213
ltoes 8.37416
199
root 0.832837 16.4957 36.7635 -155.649 -4.31939 -182.341
lowerback -16.6474 -0.555075 -5.55483
upperback -7.64655 -1.1114 -0.405418
thorax 1.20643 -0.963114 2.50907
lowerneck -11.3715 1.89028 -0.981536
upperneck 39.2156 -2.41461 0.916041
head 15.8123 -2.73031 -0.300544
rclavicle 1.88535e-015 1.19271e-015
rhumerus -44.1158 18.6083 -91.9877
rradius 23.805
rwrist -8.82298
rhand 15.513 0.607661
rfingers 7.12502
rthumb 40.3344 -24.5166
lclavicle 1.88535e-015 1.19271e-015
lhumerus -46.4429 -6.07166 80.9354
lradius 31.5046
lwrist 0.11831
lhand 27.0902 22.1501
lfingers 7.12502
lthumb 51.0729 42.7907
rfemur -35.2203 -22.9744 31.9821
rtibia 65.4709
rfoot 24.7544 -28.4369
rtoes 29.1739
lfemur -45.5399 -1.55721 -32.8275
ltibia 44.8539
lfoot -35.6884 18.6618
ltoes 8.41333
200
root 0.835551 16.4946 36.7589 -155.486 -4.19831 -182.27
lowerback -17.2354 -0.594754 -5.54854
upperback -7.41917 -1.09985 -0.384369
thorax 1.75635 -0.966934 2.51584
lowerneck -11.3032 1.87755 -0.923143
upperneck 38.9386 -2.35119 0.88575
head 15.6512 -2.67443 -0.300386
rclavicle -3.34517e-015 -1.78906e-015
rhumerus -43.817 18.8017 -92.0119
rradius 24.0215
rwrist -8.79571
rhand 15.8823 0.0279565
rfingers 7.12502
rthumb 40.6815 -24.9888
lclavicle -3.34517e-015 -1.78906e-015
lhumerus -46.054 -6.03925 80.729
lradius 31.5424
lwrist 0.0191207
lhand 27.0596 22.2512
lfingers 7.12502
lthumb 51.045 42.9075
rfemur -35.3423 -22.7165 32.1105
rtibia 65.3625
rfoot 27.3167 -28.6093
rtoes 27.5274
lfemur -45.722 -1.6531 -32.7136
ltibia 44.8283
lfoot -35.7594 18.7359
ltoes 8.78575
201
root 0.836273 16.4982 36.7522 -155.405 -4.07138 -182.362
lowerback -17.5077 -0.65265 -5.68663
upperback -7.3212 -1.12791 -0.400139
thorax 2.00494 -0.984819 2.56552
lowerneck -11.2066 1.89789 -0.851751
upperneck 38.779 -2.28778 0.849736
head 15.5444 -2.63281 -0.311089
rclavicle 2.65253e-015 6.75868e-015
rhumerus -43.7502 19.0994 -92.125
rradius 24.2271
rwrist -8.81169
rhand 17.2475 -0.849411
rfingers 7.12502
rthumb 41.9629 -25.4519
lclavicle 2.65253e-015 6.75868e-015
lhumerus -45.9998 -6.09337 80.6087
lradius 31.7595
lwrist -0.0221748
lhand 26.9203 22.0693
lfingers 7.12502
lthumb 50.9181 42.7963
rfemur -35.3574 -22.6956 31.9974
rtibia 65.2519
rfoot 30.9429 -28.4629
rtoes 25.6278
lfemur -45.7492 -1.70247 -32.8079
ltibia 44.7783
lfoot -35.7994 18.8375
ltoes 9.02601
202
root 0.835805 16.5025 36.7435 -155.413 -3.97718 -182.393
lowerback -17.559 -0.653686 -5.74357
upperback -7.33029 -1.1228 -0.430722
thorax 2.02062 -0.984918 2.56548
lowerneck -11.0558 1.91713 -0.749502
upperneck 38.7138 -2.27531 0.809701
head 15.474 -2.62167 -0.341584
rclavicle 6.86428e-015 -1.96797e-014
rhumerus -43.9521 19.4832 -92.4264
rradius 24.4553
rwrist -9.08051
rhand 18.1789 -2.57696
rfingers 7.12502
rthumb 42.8349 -26.881
lclavicle 6.86428e-015 -1.96797e-014
lhumerus -46.1589 -6.38977 80.593
lradius 32.0314
lwrist 0.0738233
lhand 26.881 22.27
lfingers 7.12502
lthumb 50.8823 43.0169
rfemur -35.2425 -22.747 31.904
rtibia 65.145
rfoot 30.9276 -28.4122
rtoes 25.2981
lfemur -45.6824 -1.75853 -32.823
ltibia 44.757
lfoot -35.9046 18.923
ltoes 9.24708
203
root 0.833804 16.5065 36.736 -155.396 -4.01608 -182.304
lowerback -17.4862 -0.651585 -5.64877
upperback -7.44012 -1.1634 -0.406549
thorax 1.86856 -1.0085 2.53275
lowerneck -10.8748 1.94915 -0.622107
upperneck 38.7074 -2.24855 0.700742
head 15.4248 -2.61825 -0.406353
rclavicle 6.72141e-015 1.98785e-016
rhumerus -44.4277 20.0012 -92.8647
rradius 24.8566
rwrist -9.59129
rhand 17.8604 -2.77505
rfingers 7.12502
rthumb 42.5369 -27.1826
lclavicle 6.72141e-015 1.98785e-016
lhumerus -46.4266 -6.59948 80.5669
lradius 32.276
lwrist -0.0166774
lhand 27.0357 22.5233
lfingers 7.12502
lthumb 51.0233 43.1917
rfemur -35.1581 -22.8189 32.007
rtibia 65.0149
rfoot 30.7878 -28.5324
rtoes 25.3687
lfemur -45.6652 -1.81856 -32.6977
ltibia 44.7469
lfoot -35.907 18.9896
ltoes 9.19787
204
root 0.833478 16.5058 36.7333 -155.208 -4.01619 -182.197
lowerback -17.4412 -0.645857 -5.58896
upperback -7.6368 -1.2153 -0.344258
thorax 1.639 -1.0416 2.55903
lowerneck -10.7369 1.99463 -0.54879
upperneck 38.7449 -2.19871 0.601848
head 15.4082 -2.61383 -0.455709
rclavicle -1.77974e-015 1.76918e-014
rhumerus -44.9657 20.5012 -93.2438
rradius 25.308
rwrist -10.0622
rhand 17.6413 -2.79393
rfingers 7.12502
rthumb 42.3318 -27.2718
lclavicle -1.77974e-015 1.76918e-014
lhumerus -46.6977 -6.64001 80.4945
lradius 32.4647
lwrist -0.324095
lhand 27.2147 22.5708
lfingers 7.12502
lthumb 51.1863 43.1476
rfemur -35.3201 -22.7443 32.2286
rtibia 64.9049
rfoot 30.499 -29.0789
rtoes 26.1954
lfemur -45.8768 -1.89147 -32.5552
ltibia 44.7507
lfoot -35.9623 18.8908
ltoes 9.48402
